<?xml version="1.0" standalone="no"?>
<svg viewBox="0 0 200 200" xmlns="http://www.w3.org/2000/svg">
  <path fill="#83CEDB" d="M24.2,-30.9C35.6,-30.4,51.9,-30.8,61.9,-23.9C71.8,-17,75.5,-2.8,65.6,3.7C55.7,10.1,32.2,8.8,21.6,15.6C10.9,22.4,13.1,37.3,11.3,37.5C9.4,37.6,3.4,23.1,-7.6,21.7C-18.5,20.3,-34.6,32.1,-46.8,32.5C-59,32.9,-67.4,21.9,-60.1,14.1C-52.7,6.3,-29.6,1.6,-24.4,-11.6C-19.1,-24.9,-31.6,-46.8,-30.6,-52.1C-29.5,-57.3,-14.7,-45.8,-4.2,-39.4C6.4,-32.9,12.9,-31.5,24.2,-30.9Z" transform="translate(100 100)" />
</svg>
