<?xml version="1.0" standalone="no"?>
<svg viewBox="0 0 200 200" xmlns="http://www.w3.org/2000/svg">
  <path fill="#83CEDB" d="M28.8,-40.9C40.9,-37.1,56.5,-35,64.9,-26.7C73.3,-18.4,74.4,-3.7,65.5,4.4C56.5,12.5,37.4,14.2,28.8,25.9C20.1,37.5,21.9,59.1,18.1,59.2C14.2,59.2,4.7,37.8,-7,31C-18.6,24.2,-32.4,32.2,-41.1,30.8C-49.8,29.5,-53.3,18.8,-59,6C-64.8,-6.9,-72.9,-21.9,-67.2,-29.2C-61.5,-36.4,-42.1,-35.8,-28.6,-38.9C-15.1,-41.9,-7.5,-48.6,0.4,-49.3C8.4,-50,16.8,-44.6,28.8,-40.9Z" transform="translate(100 100)" />
</svg>
