<?xml version="1.0" standalone="no"?>
<svg viewBox="0 0 200 200" xmlns="http://www.w3.org/2000/svg">
  <path fill="#83CEDB" d="M21.2,-23.1C32.9,-25.5,51.5,-28.8,55.7,-24.1C59.8,-19.5,49.5,-6.9,49.8,8.9C50.2,24.7,61.3,43.7,56.3,47.9C51.3,52.2,30.2,41.6,14.3,44.1C-1.6,46.6,-12.2,62.3,-24.6,66.5C-37,70.8,-51.1,63.6,-59,52.3C-66.9,41,-68.5,25.6,-64,13.3C-59.5,1,-48.7,-8.2,-39.1,-13.1C-29.4,-18,-20.9,-18.7,-14.6,-18.7C-8.3,-18.8,-4.1,-18.2,0.3,-18.7C4.8,-19.2,9.5,-20.7,21.2,-23.1Z" transform="translate(100 100)" />
</svg>
