<?xml version="1.0" standalone="no"?>
<svg viewBox="0 0 200 200" xmlns="http://www.w3.org/2000/svg">
  <path fill="#83CEDB" d="M36.2,-51.5C46,-50,52.5,-38.5,58.2,-26.5C63.9,-14.4,68.8,-1.9,68.1,10.5C67.5,23,61.3,35.4,51.7,42.6C42,49.9,29,52.1,15.4,59.2C1.8,66.3,-12.4,78.3,-20.5,74C-28.6,69.7,-30.7,49.1,-37.9,35.7C-45,22.3,-57.2,16.1,-60,7.6C-62.8,-0.9,-56.2,-11.8,-44.8,-13.7C-33.4,-15.6,-17.2,-8.6,-8.9,-10.8C-0.7,-12.9,-0.3,-24.3,6.4,-34.3C13.2,-44.3,26.4,-52.9,36.2,-51.5Z" transform="translate(100 100)" />
</svg>
