<?xml version="1.0" standalone="no"?>
<svg viewBox="0 0 200 200" xmlns="http://www.w3.org/2000/svg">
  <path fill="#83CEDB" d="M18.8,-30.7C26.4,-24.4,35.9,-22.6,42.2,-16.9C48.5,-11.2,51.6,-1.7,45.9,3.4C40.3,8.6,25.9,9.2,18.8,15C11.8,20.7,12.1,31.5,7.2,40.1C2.3,48.7,-7.9,55,-15.7,53C-23.6,50.9,-29.2,40.5,-40.9,32.4C-52.7,24.3,-70.6,18.5,-71.6,10.4C-72.6,2.3,-56.6,-8.1,-43.6,-13C-30.6,-17.9,-20.6,-17.2,-13.9,-23.9C-7.1,-30.6,-3.6,-44.6,1,-46.2C5.6,-47.8,11.3,-37.1,18.8,-30.7Z" transform="translate(100 100)" />
</svg>
