<?xml version="1.0" standalone="no"?>
<svg viewBox="0 0 200 200" xmlns="http://www.w3.org/2000/svg">
  <path fill="#83CEDB" d="M31,-60.4C37.7,-49.8,38.9,-36.5,48.8,-26C58.7,-15.4,77.4,-7.7,84.1,3.9C90.9,15.5,85.8,31.1,77.4,44.2C69,57.4,57.3,68.2,43.8,67.7C30.4,67.2,15.2,55.5,2.7,50.9C-9.9,46.3,-19.7,48.7,-32.5,48.8C-45.3,48.9,-61,46.6,-69.4,38C-77.9,29.5,-79.2,14.8,-80.1,-0.5C-81,-15.8,-81.6,-31.7,-73.6,-40.9C-65.5,-50.1,-48.8,-52.8,-35,-59.3C-21.3,-65.9,-10.7,-76.4,0.7,-77.6C12.1,-78.9,24.3,-71,31,-60.4Z" transform="translate(100 100)" />
</svg>
