<?xml version="1.0"?>
<svg xmlns="http://www.w3.org/2000/svg" xmlns:xlink="http://www.w3.org/1999/xlink" version="1.1" id="Capa_1" x="0px" y="0px" viewBox="0 0 297 297" style="enable-background:new 0 0 297 297;" xml:space="preserve" width="512" height="512" class=""><g><g>
	<path d="M183.833,135.186h-1.024c-7.353,0-13.314,5.961-13.314,13.314s5.961,13.314,13.314,13.314h1.024   c7.353,0,13.314-5.961,13.314-13.314S191.186,135.186,183.833,135.186z" data-original="#000000" class="active-path" style="fill:#1C2C5D" data-old_color="#000000"/>
	<path d="M115.216,135.186h-1.024c-7.353,0-13.314,5.961-13.314,13.314s5.961,13.314,13.314,13.314h1.024   c7.353,0,13.314-5.961,13.314-13.314S122.569,135.186,115.216,135.186z" data-original="#000000" class="active-path" style="fill:#1C2C5D" data-old_color="#000000"/>
	<path d="M266.788,0H30.212c-7.353,0-13.314,5.961-13.314,13.314v270.372c0,7.353,5.961,13.314,13.314,13.314   s13.314-5.961,13.314-13.314v-20.483h209.948v20.483c0,7.353,5.961,13.314,13.314,13.314s13.314-5.961,13.314-13.314V13.314   C280.102,5.961,274.141,0,266.788,0z M43.526,26.628h92.172v209.948H43.526V26.628z M162.326,236.576V26.628h91.148v209.948   H162.326z" data-original="#000000" class="active-path" style="fill:#1C2C5D" data-old_color="#000000"/>
</g></g> </svg>
