<svg xmlns="http://www.w3.org/2000/svg" width="89.984" height="50" viewBox="0 0 89.984 50">
  <g id="credit-card" transform="translate(89.984) rotate(90)">
    <g id="Group_51" data-name="Group 51" transform="translate(0)">
      <path id="Path_472" data-name="Path 472" d="M159.008,0h-31.29a4.752,4.752,0,0,0-4.746,4.747V41.04c-.279.379-.742.991-1.2,1.591-1.68,2.22-4.22,5.575-5.734,7.959C113.055,55.3,113,60,115.848,66.322q.03.066.065.13s3.57,6.457,3.723,6.74c.9,1.665,2.41,4.453,2.314,6.644,0,.025,0,.051,0,.077v5.2a4.882,4.882,0,0,0,4.876,4.876h15.882a4.882,4.882,0,0,0,4.876-4.876l-.015-4.553a11.955,11.955,0,0,1,.6-3.844,21.637,21.637,0,0,0,.674-2.927c0-.032.009-.063.012-.1.26-2.7-.441-5.3-1.184-8.063-.421-1.566-.871-3.236-1.192-5.084h12.528a4.752,4.752,0,0,0,4.747-4.747V38.165a1.757,1.757,0,1,0-3.515,0V55.8a1.233,1.233,0,0,1-1.232,1.232h-4.146V3.515h4.146a1.233,1.233,0,0,1,1.231,1.232V22.377a1.757,1.757,0,1,0,3.515,0V4.747A4.752,4.752,0,0,0,159.008,0Zm-16.3,86.469H126.826a1.379,1.379,0,0,1-1.361-1.361v-5.16c.121-3.15-1.667-6.453-2.736-8.429-.146-.27-3.706-6.708-3.706-6.708-2.337-5.208-2.339-8.672-.014-12.338,1.018-1.6,2.563-3.718,3.962-5.589V55.8a4.752,4.752,0,0,0,4.746,4.747h5.635v5.865a1.758,1.758,0,0,0,3.515,0V47.9a2.876,2.876,0,0,1,4.925-2.017,2.808,2.808,0,0,1,.831,2.007c0,.6-.013,4.565-.083,6.4a31.561,31.561,0,0,0,.156,4.552c0,.1.14,1.144.2,1.551a54.5,54.5,0,0,0,1.379,6.142,20.135,20.135,0,0,1,1.083,6.766,18.286,18.286,0,0,1-.57,2.437,15.411,15.411,0,0,0-.737,4.823c0,.006,0,.012,0,.018l.015,4.525a1.379,1.379,0,0,1-1.361,1.361Zm8.639-29.442h-5.272c-.045-.83.06-8.52.064-9.117a6.3,6.3,0,0,0-1.853-4.506,6.391,6.391,0,0,0-10.933,4.5v9.128h-5.635a1.233,1.233,0,0,1-1.231-1.232V4.747a1.233,1.233,0,0,1,1.231-1.232h23.629Z" transform="translate(-113.754)" fill="#fff"/>
      <path id="Path_473" data-name="Path 473" d="M388.246,162.252a10,10,0,0,0-10,10v.028a10,10,0,1,0,10-10.028Z" transform="translate(-348.247 -139.176)" fill="#fff"/>
    </g>
  </g>
</svg>
