<?xml version="1.0"?>
<svg xmlns="http://www.w3.org/2000/svg" xmlns:xlink="http://www.w3.org/1999/xlink" version="1.1" id="Capa_1" x="0px" y="0px" viewBox="0 0 297 297" style="enable-background:new 0 0 297 297;" xml:space="preserve" width="512" height="512"><g><path d="M284.585,121.739h-60.218c1.546-1.803,2.485-4.141,2.485-6.701c0-5.693-4.616-10.309-10.309-10.309H148.5  c-5.693,0-10.31,4.615-10.31,10.309c0,2.561,0.939,4.898,2.484,6.701H71.271c1.545-1.803,2.484-4.141,2.484-6.701  c0-5.693-4.616-10.309-10.31-10.309H50.232l-8.874-35.497l22.697-12.408c1.163,3.942,2.877,7.747,5.145,11.311  c1.966,3.088,5.3,4.775,8.708,4.775c1.893,0,3.81-0.521,5.525-1.612l13.973-8.893c3.166,2.391,7.017,3.654,10.916,3.654  c3.471,0,6.975-0.997,10.062-3.077c6.271-4.232,9.023-11.743,7.54-18.726l14.914-9.491c2.307-1.468,3.936-3.793,4.529-6.462  c0.593-2.669,0.102-5.465-1.366-7.771C135.817,7.676,121.825,0,106.57,0C98.149,0,89.931,2.398,82.8,6.936  c-9.665,6.151-16.44,15.593-19.198,26.667c-0.154,0.074-0.31,0.14-0.461,0.223L24.48,54.96c-4.115,2.251-6.193,6.996-5.056,11.547  l9.562,38.244c-5.488,0.232-9.869,4.743-9.869,10.287c0,2.561,0.94,4.898,2.484,6.701h-9.186c-5.693,0-10.31,4.616-10.31,10.309  v51.032c0,5.693,4.616,10.309,10.31,10.309h6.701v93.3c0,5.692,4.616,10.31,10.31,10.31c5.693,0,10.309-4.617,10.309-10.31v-93.3  h217.53v93.3c0,5.692,4.616,10.31,10.31,10.31c5.693,0,10.31-4.617,10.31-10.31v-93.3h6.701c5.693,0,10.309-4.616,10.309-10.309  v-51.032C294.895,126.355,290.278,121.739,284.585,121.739z M83.453,39.192c1.375-6.183,5.073-11.461,10.418-14.861  c3.815-2.429,8.207-3.712,12.699-3.712c4.519,0,8.831,1.257,12.522,3.545L83.039,47.108C82.733,44.5,82.866,41.831,83.453,39.192z   M274.275,172.771H22.725v-30.413h251.551V172.771z" data-original="#000000" class="active-path" data-old_color="#000000" style="fill:#83CEDB"/></g> </svg>
