<svg xmlns="http://www.w3.org/2000/svg" width="53.333" height="50" viewBox="0 0 53.333 50">
  <g id="history_1_" data-name="history (1)" transform="translate(-161.029 -34.445)">
    <path id="Path_16" data-name="Path 16" d="M275.486,172.228l0,11.011a1.515,1.515,0,0,0,.5,1.113l8.522,7.876L286.91,190l-8.023-7.415,0-10.36Z" transform="translate(-88.039 -122.53)" fill="#1c2c5d"/>
    <path id="Path_17" data-name="Path 17" d="M30,34.445c-11.732,0-21.441,9.335-23.067,21.429H0L8.333,64.8l8.333-8.929H10.3C11.9,45.755,20.109,38.016,30,38.016c11.029,0,20,9.612,20,21.429S41.029,80.874,30,80.874a19.45,19.45,0,0,1-15.772-8.249l-2.627,2.2A22.691,22.691,0,0,0,30,84.445c12.866,0,23.333-11.217,23.333-25s-10.467-25-23.333-25Z" transform="translate(161.029)" fill="#1c2c5d"/>
  </g>
</svg>
