<svg xmlns="http://www.w3.org/2000/svg" width="50" height="46.875" viewBox="0 0 50 46.875">
  <g id="history_1_" data-name="history (1)" transform="translate(-161.029 -34.445)">
    <path id="Path_16" data-name="Path 16" d="M275.486,172.228l0,11.011a1.515,1.515,0,0,0,.5,1.113l8.522,7.876L286.91,190l-8.023-7.415,0-10.36Z" transform="translate(-89.202 -124.115)" fill="#1c2c5d"/>
    <path id="Path_17" data-name="Path 17" d="M28.125,34.445c-11,0-20.1,8.751-21.625,20.089H0L7.812,62.9l7.812-8.371H9.657c1.495-9.486,9.2-16.741,18.468-16.741,10.339,0,18.75,9.011,18.75,20.089s-8.411,20.089-18.75,20.089a18.234,18.234,0,0,1-14.786-7.733L10.876,72.3A21.273,21.273,0,0,0,28.125,81.32C40.187,81.32,50,70.8,50,57.882S40.187,34.445,28.125,34.445Z" transform="translate(161.029)" fill="#1c2c5d"/>
  </g>
</svg>
