<svg xmlns="http://www.w3.org/2000/svg" width="32" height="30" viewBox="0 0 32 30">
  <g id="history_1_" data-name="history (1)" transform="translate(-161.029 -34.445)">
    <path id="Path_16" data-name="Path 16" d="M275.484,172.228l0,7.708a1.06,1.06,0,0,0,.349.779l5.965,5.513,1.685-1.558-5.616-5.19,0-7.252Z" transform="translate(-98.88 -129.671)" fill="#949cb5"/>
    <path id="Path_17" data-name="Path 17" d="M18,34.445c-7.039,0-12.865,5.6-13.84,12.857H0l5,5.357L10,47.3H6.181C7.137,41.231,12.066,36.588,18,36.588c6.617,0,12,5.767,12,12.857S24.617,62.3,18,62.3a11.67,11.67,0,0,1-9.463-4.949L6.961,58.671A13.615,13.615,0,0,0,18,64.445c7.72,0,14-6.73,14-15s-6.28-15-14-15Z" transform="translate(161.029)" fill="#949cb5"/>
  </g>
</svg>
