<svg xmlns="http://www.w3.org/2000/svg" width="47.205" height="45" viewBox="0 0 47.205 45">
  <g id="home" transform="translate(0 -11.96)">
    <g id="Group_35" data-name="Group 35" transform="translate(0 11.96)">
      <path id="Path_435" data-name="Path 435" d="M23.6,11.96,0,32.457l2.416,2.782,2.21-1.919V51.433a5.534,5.534,0,0,0,5.527,5.527H20.471V38.9h6.448V56.96H37.052a5.534,5.534,0,0,0,5.527-5.527V33.32l2.21,1.919,2.416-2.782ZM38.895,51.433a1.844,1.844,0,0,1-1.842,1.842H30.6V35.22H16.786V53.275H10.153a1.844,1.844,0,0,1-1.842-1.842V30.12L23.6,16.84,38.895,30.12Z" transform="translate(0 -11.96)" fill="#1c2c5d"/>
    </g>
  </g>
</svg>
