<svg xmlns="http://www.w3.org/2000/svg" width="29.032" height="30" viewBox="0 0 29.032 30">
  <g id="logout_1_" data-name="logout (1)" transform="translate(88 -233.332)">
    <path id="Path_430" data-name="Path 430" d="M164.582,220.5h-14.5a.75.75,0,0,1,0-1.5h14.5a.75.75,0,0,1,0,1.5Zm0,0" transform="translate(-227 29)" fill="#b94343"/>
    <path id="Path_431" data-name="Path 431" d="M149.957,141.462a.612.612,0,0,0,.436-.181l3.288-3.288a.617.617,0,0,0,0-.872l-3.288-3.288a.617.617,0,1,0-.872.872l2.852,2.852-2.852,2.852a.616.616,0,0,0,.437,1.052Zm0,0" transform="translate(-215 111)" fill="#b94343"/>
    <path id="Path_432" data-name="Path 432" d="M15,30.332A15,15,0,1,1,28.961,9.845a1.023,1.023,0,1,1-1.9.749,12.954,12.954,0,1,0,0,9.479,1.023,1.023,0,1,1,1.9.749A14.923,14.923,0,0,1,15,30.332Zm0,0" transform="translate(-88 233)" fill="#b94343"/>
  </g>
</svg>
