<svg xmlns="http://www.w3.org/2000/svg" width="52" height="52" viewBox="0 0 52 52">
  <g id="chat_icon" data-name="chat icon" transform="translate(-1776 -483)">
    <path id="Icon_feather-message-circle" data-name="Icon feather-message-circle" d="M54.5,28.111A23.278,23.278,0,0,1,52,38.667,23.611,23.611,0,0,1,30.889,51.722a23.278,23.278,0,0,1-10.556-2.5L4.5,54.5,9.778,38.667a23.278,23.278,0,0,1-2.5-10.556A23.611,23.611,0,0,1,20.333,7,23.278,23.278,0,0,1,30.889,4.5h1.389A23.556,23.556,0,0,1,54.5,26.722Z" transform="translate(1772.5 479.5)" fill="none" stroke="#1c2c5d" stroke-linecap="round" stroke-linejoin="round" stroke-width="2"/>
    <path id="Path_440" data-name="Path 440" d="M6,31.5H29.57" transform="translate(1785.521 470.481)" fill="none" stroke="#1c2c5d" stroke-linecap="round" stroke-linejoin="round" stroke-width="2"/>
    <path id="Path_441" data-name="Path 441" d="M6,31.5H20.962" transform="translate(1792.582 479.741)" fill="none" stroke="#1c2c5d" stroke-linecap="round" stroke-linejoin="round" stroke-width="2"/>
  </g>
</svg>
