<svg xmlns="http://www.w3.org/2000/svg" width="29" height="29" viewBox="0 0 29 29">
  <g id="chat_icon" data-name="chat icon" transform="translate(-1776 -483)">
    <path id="Icon_feather-message-circle" data-name="Icon feather-message-circle" d="M31.5,17.25a12.57,12.57,0,0,1-1.35,5.7A12.75,12.75,0,0,1,18.75,30a12.57,12.57,0,0,1-5.7-1.35L4.5,31.5l2.85-8.55A12.57,12.57,0,0,1,6,17.25a12.75,12.75,0,0,1,7.05-11.4,12.57,12.57,0,0,1,5.7-1.35h.75a12.72,12.72,0,0,1,12,12Z" transform="translate(1772.5 479.5)" fill="none" stroke="#fff" stroke-linecap="round" stroke-linejoin="round" stroke-width="2"/>
    <path id="Path_440" data-name="Path 440" d="M6,31.5H18.354" transform="translate(1779.846 462.75)" fill="none" stroke="#fff" stroke-linecap="round" stroke-linejoin="round" stroke-width="1.5"/>
    <path id="Path_441" data-name="Path 441" d="M6,31.5h8.344" transform="translate(1783.182 467.75)" fill="none" stroke="#fff" stroke-linecap="round" stroke-linejoin="round" stroke-width="1.5"/>
  </g>
</svg>
