<svg xmlns="http://www.w3.org/2000/svg" width="52" height="52" viewBox="0 0 52 52">
  <g id="reserve" transform="translate(-1831.162 -321.191)">
    <g id="reservation_1_" data-name="reservation (1)" transform="translate(1387.75 240.099)">
      <g id="Group_29" data-name="Group 29" transform="translate(453.408 97.333)">
        <g id="Group_28" data-name="Group 28" transform="translate(0)">
          <path id="Path_13" data-name="Path 13" d="M32.335,162.887,30.1,152.13c-.315-1.647-1.388-2.8-2.611-2.8H4.728a.628.628,0,0,0-.526.352c-.026.044-3.923,10-3.923,10A4.255,4.255,0,0,0,0,161.214c0,1.761,1.028,3.195,2.29,3.195h4l.13.817c.277,1.738,1.361,2.952,2.637,2.952h.022l20.877-.941c1.36,0,2.467-1.544,2.467-3.441A4.77,4.77,0,0,0,32.335,162.887ZM2.29,162.524c-.518,0-.939-.588-.939-1.31a1.76,1.76,0,0,1,.113-.628l2.995-7.657,1.529,9.595Zm27.642,2.828-20.886.941c-.635-.006-1.171-.611-1.309-1.476l-2.168-13.6H27.488c.611,0,1.148.575,1.309,1.418L31.034,163.4a2.039,2.039,0,0,1,.037.4C31.071,164.652,30.57,165.351,29.932,165.352Z" transform="translate(0 -149.333)" fill="#1c2c5d"/>
          <path id="Path_14" data-name="Path 14" d="M188.348,225.978l-15.572.473a.762.762,0,1,0,.025,1.524h.025L188.4,227.5a.771.771,0,0,0,.761-.785A.751.751,0,0,0,188.348,225.978Z" transform="translate(-161.054 -220.792)" fill="#1c2c5d"/>
          <path id="Path_15" data-name="Path 15" d="M216.815,270.321l-12.432.308a.8.8,0,0,0-.865.733.826.826,0,0,0,.893.689h.028l12.432-.308a.8.8,0,0,0,.865-.733A.815.815,0,0,0,216.815,270.321Z" transform="translate(-189.563 -260.186)" fill="#1c2c5d"/>
        </g>
      </g>
    </g>
    <path id="Icon_feather-circle" data-name="Icon feather-circle" d="M53,28a25.206,25.206,0,0,1-7.322,17.678A24.643,24.643,0,0,1,28,53,25,25,0,1,1,46.637,11.336,24.594,24.594,0,0,1,53,28Z" transform="translate(1829.162 319.191)" fill="none" stroke="#1c2c5d" stroke-linecap="round" stroke-linejoin="round" stroke-width="2"/>
  </g>
</svg>
