<svg xmlns="http://www.w3.org/2000/svg" width="32" height="32" viewBox="0 0 32 32">
  <g id="reservation_1_" data-name="reservation (1)" transform="translate(-448.412 -87.524)">
    <g id="Group_29" data-name="Group 29" transform="translate(453.408 97.333)">
      <g id="Group_28" data-name="Group 28" transform="translate(0)">
        <path id="Path_13" data-name="Path 13" d="M22.78,158.882,21.205,151.3c-.222-1.16-.978-1.971-1.839-1.971H3.331a.442.442,0,0,0-.371.248C2.942,149.613.2,156.626.2,156.626A3,3,0,0,0,0,157.7c0,1.241.724,2.251,1.614,2.251H4.43l.092.576c.2,1.225.959,2.08,1.858,2.08H6.4l14.708-.663c.958,0,1.738-1.088,1.738-2.424A3.361,3.361,0,0,0,22.78,158.882Zm-21.167-.256c-.365,0-.662-.414-.662-.923a1.24,1.24,0,0,1,.08-.442l2.11-5.394,1.077,6.76Zm19.474,1.992-14.715.663c-.447,0-.825-.43-.922-1.04l-1.527-9.581H19.366c.43,0,.809.405.922,1l1.576,7.582a1.437,1.437,0,0,1,.026.279C21.89,160.126,21.537,160.618,21.088,160.618Z" transform="translate(0 -149.333)" fill="#fff"/>
        <path id="Path_14" data-name="Path 14" d="M182.5,225.977l-9.992.355a.546.546,0,0,0-.488.589.539.539,0,0,0,.5.554h.016l9.992-.355a.546.546,0,0,0,.488-.589A.518.518,0,0,0,182.5,225.977Z" transform="translate(-163.491 -222.456)" fill="#fff"/>
        <path id="Path_15" data-name="Path 15" d="M211,270.32l-6.994.267a.577.577,0,0,0-.487.635.564.564,0,0,0,.5.6h.016l6.994-.267a.577.577,0,0,0,.487-.635C211.507,270.577,211.282,270.3,211,270.32Z" transform="translate(-191.923 -263.439)" fill="#fff"/>
      </g>
    </g>
    <path id="Icon_feather-circle" data-name="Icon feather-circle" d="M33,18a15.124,15.124,0,0,1-4.393,10.607A14.786,14.786,0,0,1,18,33,15,15,0,1,1,29.182,8,14.756,14.756,0,0,1,33,18Z" transform="translate(446.412 85.524)" fill="none" stroke="#fff" stroke-linecap="round" stroke-linejoin="round" stroke-width="2"/>
  </g>
</svg>
