<svg xmlns="http://www.w3.org/2000/svg" width="20" height="21.333" viewBox="0 0 20 21.333">
  <path id="Icon_awesome-star-of-life" data-name="Icon awesome-star-of-life" d="M19.667,13.935,14,10.667,19.667,7.4a.667.667,0,0,0,.244-.911l-1.334-2.31a.667.667,0,0,0-.911-.244L12,7.2V.667A.667.667,0,0,0,11.334,0H8.666A.667.667,0,0,0,8,.667V7.2L2.335,3.935a.667.667,0,0,0-.911.244L.09,6.488A.667.667,0,0,0,.334,7.4L6,10.667.334,13.935a.667.667,0,0,0-.244.911l1.334,2.31a.668.668,0,0,0,.911.244L8,14.131v6.535a.667.667,0,0,0,.667.667h2.668A.667.667,0,0,0,12,20.667V14.131L17.665,17.4a.667.667,0,0,0,.911-.244l1.334-2.31A.666.666,0,0,0,19.667,13.935Z" transform="translate(0)" fill="#b94343"/>
</svg>
