<svg xmlns="http://www.w3.org/2000/svg" width="45.656" height="45.663" viewBox="0 0 45.656 45.663">
  <g id="working-chair-desk-monitor-online" transform="translate(-2 -2)">
    <path id="Path_468" data-name="Path 468" d="M47.656,28.633V25.589a.761.761,0,0,0-.761-.761H37v-.761a2.29,2.29,0,0,0-2.283-2.283h-.761V20.262h3.8a2.29,2.29,0,0,0,2.283-2.283V4.283A2.29,2.29,0,0,0,37.764,2H11.892A2.29,2.29,0,0,0,9.609,4.283v13.7a2.29,2.29,0,0,0,2.283,2.283h3.8v1.522h-.761a2.29,2.29,0,0,0-2.283,2.283v.761H2.761A.761.761,0,0,0,2,25.589v3.044a.761.761,0,0,0,.761.761H4.184L2.008,46.8a.737.737,0,0,0,.183.594.746.746,0,0,0,.571.259H4.283a.761.761,0,0,0,.73-.548L10.18,29.394h2.473v2.283a.761.761,0,0,0,.761.761H15.7v1.522a.761.761,0,0,0,.761.761h6.087v4.566H17.219a.761.761,0,0,0-.761.761v3.181a2.283,2.283,0,1,0,1.522,0v-2.42h6.087v2.42a2.283,2.283,0,1,0,1.522,0v-2.42h6.087v2.42a2.283,2.283,0,1,0,1.522,0V40.047a.761.761,0,0,0-.761-.761H27.111V34.72H33.2a.761.761,0,0,0,.761-.761V32.437h2.283A.761.761,0,0,0,37,31.677V29.394h2.473l5.167,17.715a.761.761,0,0,0,.73.548H46.9a.746.746,0,0,0,.571-.259.737.737,0,0,0,.183-.594l-2.176-17.41H46.9A.761.761,0,0,0,47.656,28.633ZM3.712,46.134H3.621L5.713,29.394H8.6Zm8.941-18.262H3.522V26.35h9.131ZM15.7,30.916H14.175V24.067a.761.761,0,0,1,.761-.761H15.7Zm1.522,15.219a.761.761,0,1,1,.761-.761A.761.761,0,0,1,17.219,46.134Zm15.219-1.522a.761.761,0,1,1-.761.761A.761.761,0,0,1,32.437,44.612Zm-7.609,1.522a.761.761,0,1,1,.761-.761A.761.761,0,0,1,24.828,46.134Zm.761-6.848H24.067V34.72h1.522ZM32.437,33.2H17.219V17.98a.761.761,0,0,1,.761-.761h13.7a.761.761,0,0,1,.761.761ZM20.262,15.7V14.175a4.566,4.566,0,1,1,9.131,0V15.7Zm11.414,0h-.761V14.175a6.087,6.087,0,1,0-12.175,0V15.7H17.98A2.29,2.29,0,0,0,15.7,17.98v.761h-3.8a.761.761,0,0,1-.761-.761V4.283a.761.761,0,0,1,.761-.761H37.764a.761.761,0,0,1,.761.761v13.7a.761.761,0,0,1-.761.761h-3.8V17.98A2.29,2.29,0,0,0,31.677,15.7Zm3.8,15.219H33.959V23.306h.761a.761.761,0,0,1,.761.761ZM46.035,46.134h-.091L41.059,29.394h2.884Zm.1-18.262H37V26.35h9.131Z" fill="#fff"/>
    <path id="Path_469" data-name="Path 469" d="M46,11h2V7a1,1,0,0,0-1-1H43V8h3Z" transform="translate(-10.693)" fill="#fff"/>
    <rect id="Rectangle_55" data-name="Rectangle 55" width="2" height="2" transform="translate(35.656 9.654)" fill="#fff"/>
  </g>
</svg>
